<svg xmlns="http://www.w3.org/2000/svg" version="1.1" xmlns:xlink="http://www.w3.org/1999/xlink" xmlns:svgjs="http://svgjs.dev/svgjs" viewBox="0 0 800 800"><defs><linearGradient x1="50%" y1="0%" x2="50%" y2="100%" id="nnneon-grad"><stop stop-color="hsl(157, 100%, 54%)" stop-opacity="1" offset="0%"></stop><stop stop-color="hsl(331, 87%, 61%)" stop-opacity="1" offset="100%"></stop></linearGradient><filter id="nnneon-filter" x="-100%" y="-100%" width="400%" height="400%" filterUnits="objectBoundingBox" primitiveUnits="userSpaceOnUse" color-interpolation-filters="sRGB">
	<feGaussianBlur stdDeviation="33 10" x="0%" y="0%" width="100%" height="100%" in="SourceGraphic" edgeMode="none" result="blur"></feGaussianBlur></filter><filter id="nnneon-filter2" x="-100%" y="-100%" width="400%" height="400%" filterUnits="objectBoundingBox" primitiveUnits="userSpaceOnUse" color-interpolation-filters="sRGB">
	<feGaussianBlur stdDeviation="37 64" x="0%" y="0%" width="100%" height="100%" in="SourceGraphic" edgeMode="none" result="blur"></feGaussianBlur></filter></defs><g stroke-width="13" stroke="url(#nnneon-grad)" fill="none"><path d="M382.4485762894866 146.86108216298237C393.30939728155226 140.591713613587 406.69060271844774 140.591713613587 417.5514237105134 146.86283730535342L610.4485908585395 258.2318861756738C621.3094118506051 264.5012547250692 628.0000145690528 276.09045980112126 628.0000145690528 288.63095204228307V511.369049782924C628.0000145690528 523.9095420240858 621.3094118506051 535.4987471001378 610.4485908585395 541.7698707919042L417.5514237105134 653.1389196622247C406.69060271844774 659.4082882116201 393.30939728155226 659.4082882116201 382.4485762894866 653.1371645198536L189.5514091414605 541.7681156495332C178.69058814939484 535.4987471001378 171.9999854309471 523.9095420240858 171.9999854309471 511.369049782924V288.63095204228307C171.9999854309471 276.09045980112126 178.69058814939484 264.5012547250692 189.5514091414605 258.2301310333028L382.4485762894866 146.86108216298237Z " filter="url(#nnneon-filter)"></path><path d="M564.4485762894866 146.86108216298237C575.3093972815523 140.591713613587 588.6906027184477 140.591713613587 599.5514237105134 146.86283730535342L792.4485908585395 258.2318861756738C803.3094118506051 264.5012547250692 810.0000145690528 276.09045980112126 810.0000145690528 288.63095204228307V511.369049782924C810.0000145690528 523.9095420240858 803.3094118506051 535.4987471001378 792.4485908585395 541.7698707919042L599.5514237105134 653.1389196622247C588.6906027184477 659.4082882116201 575.3093972815523 659.4082882116201 564.4485762894866 653.1371645198536L371.5514091414605 541.7681156495332C360.69058814939484 535.4987471001378 353.9999854309471 523.9095420240858 353.9999854309471 511.369049782924V288.63095204228307C353.9999854309471 276.09045980112126 360.69058814939484 264.5012547250692 371.5514091414605 258.2301310333028L564.4485762894866 146.86108216298237Z " filter="url(#nnneon-filter2)" opacity="0.42"></path><path d="M200.4485762894866 146.86108216298237C211.30939728155226 140.591713613587 224.69060271844774 140.591713613587 235.5514237105134 146.86283730535342L428.44859085853955 258.2318861756738C439.3094118506051 264.5012547250692 446.00001456905284 276.09045980112126 446.00001456905284 288.63095204228307V511.369049782924C446.00001456905284 523.9095420240858 439.3094118506051 535.4987471001378 428.44859085853955 541.7698707919042L235.5514237105134 653.1389196622247C224.69060271844774 659.4082882116201 211.30939728155226 659.4082882116201 200.4485762894866 653.1371645198536L7.5514091414605105 541.7681156495332C-3.3094118506051586 535.4987471001378 -10.000014569052894 523.9095420240858 -10.000014569052894 511.369049782924V288.63095204228307C-10.000014569052894 276.09045980112126 -3.3094118506051586 264.5012547250692 7.5514091414605105 258.2301310333028L200.4485762894866 146.86108216298237Z " filter="url(#nnneon-filter2)" opacity="0.42"></path><path d="M382.4485762894866 146.86108216298237C393.30939728155226 140.591713613587 406.69060271844774 140.591713613587 417.5514237105134 146.86283730535342L610.4485908585395 258.2318861756738C621.3094118506051 264.5012547250692 628.0000145690528 276.09045980112126 628.0000145690528 288.63095204228307V511.369049782924C628.0000145690528 523.9095420240858 621.3094118506051 535.4987471001378 610.4485908585395 541.7698707919042L417.5514237105134 653.1389196622247C406.69060271844774 659.4082882116201 393.30939728155226 659.4082882116201 382.4485762894866 653.1371645198536L189.5514091414605 541.7681156495332C178.69058814939484 535.4987471001378 171.9999854309471 523.9095420240858 171.9999854309471 511.369049782924V288.63095204228307C171.9999854309471 276.09045980112126 178.69058814939484 264.5012547250692 189.5514091414605 258.2301310333028L382.4485762894866 146.86108216298237Z "></path></g></svg>