<svg xmlns="http://www.w3.org/2000/svg" version="1.1" xmlns:xlink="http://www.w3.org/1999/xlink" xmlns:svgjs="http://svgjs.dev/svgjs" viewBox="0 0 800 800"><defs><filter id="uuunion-blur" x="-100%" y="-100%" width="400%" height="400%" color-interpolation-filters="sRGB">
        <feGaussianBlur in="SourceGraphic" stdDeviation="7.5 0" result="blur"></feGaussianBlur>
        <feDropShadow stdDeviation="12.307692307692308" in="blur" dx="10" dy="10" flood-color="hsl(30, 100%, 40%)" flood-opacity="0.25" x="0%" y="0%" width="100%" height="100%"></feDropShadow>
      </filter><filter id="uuunion-blur2" x="-100%" y="-100%" width="400%" height="400%" color-interpolation-filters="sRGB">
        <feGaussianBlur in="SourceGraphic" stdDeviation="7.5 0" result="blur"></feGaussianBlur>
        <feDropShadow stdDeviation="12.307692307692308" in="blur" dx="-10" dy="-10" flood-color="hsl(30, 100%, 40%)" flood-opacity="0.25" x="0%" y="0%" width="100%" height="100%"></feDropShadow>
      </filter><linearGradient gradientTransform="rotate(0, 0.5, 0.5)" x1="50%" y1="0%" x2="50%" y2="100%" id="uuunion-grad"><stop stop-color="hsl(30, 100%, 70%)" offset="10%"></stop><stop stop-color="hsl(30, 100%, 40%)" offset="90%"></stop></linearGradient><linearGradient gradientTransform="rotate(135, 0.5, 0.5)" x1="50%" y1="0%" x2="50%" y2="100%" id="uuunion-grad2"><stop stop-color="hsl(30, 100%, 70%)" offset="25%"></stop><stop stop-color="hsl(30, 100%, 40%)" offset="100%"></stop></linearGradient><linearGradient gradientTransform="rotate(333, 0.5, 0.5)" x1="50%" y1="0%" x2="50%" y2="100%" id="uuunion-grad3"><stop stop-color="hsl(30, 100%, 70%)" offset="0%"></stop><stop stop-color="hsl(30, 100%, 40%)" offset="75%"></stop></linearGradient></defs><path d="M-79.02 -78.53Q-64.37 -76.32 -49.72 -74.37 -35.07 -72.8 -20.42 -71.73 -5.77 -71.23 8.88 -71.33 23.53 -72.03 38.18 -73.27 52.83 -74.98 67.48 -77.04 82.13 -79.3 96.78 -81.6 111.43 -83.8 126.08 -85.73 140.73 -87.27 155.38 -88.31 170.03 -88.77 184.69 -88.63 199.34 -87.9 213.99 -86.62 228.64 -84.89 243.29 -82.82 257.94 -80.55 272.59 -78.25 287.24 -76.06 301.89 -74.15 316.54 -72.64 331.19 -71.64 345.84 -71.21 360.5 -71.38 375.15 -72.15 389.8 -73.46 404.45 -75.22 419.1 -77.31 433.75 -79.58 448.4 -81.88 463.05 -84.05 477.7 -85.95 492.35 -87.43 507 -88.4 521.65 -88.79 536.31 -88.57 550.96 -87.77 565.61 -86.43 580.26 -84.65 594.91 -82.54 609.56 -80.26 624.21 -77.97 638.86 -75.81 653.51 -73.94 668.16 -72.49 682.81 -71.55 697.46 -71.2 712.12 -71.45 726.77 -72.29 741.42 -73.66 756.07 -75.47 770.72 -77.58 785.37 -79.87 800.02 -82.16 814.67 -84.31 829.32 -86.15 843.97 -87.58 858.62 -88.48 856.01 -73.69 856.89 -58.91 861.16 -44.13 868.17 -29.35 876.91 -14.56 886.11 0.21 894.41 14.99 900.6 29.78 903.79 44.56 903.49 59.34 899.77 74.13 893.15 88.91 884.61 103.69 875.4 118.48 866.86 133.26 860.24 148.04 856.5 162.83 856.2 177.61 859.37 192.39 865.56 207.17 873.86 221.96 883.05 236.74 891.8 251.52 898.82 266.31 903.09 281.09 903.99 295.87 901.38 310.66 895.65 325.44 887.63 340.22 878.49 355.01 869.58 369.79 862.18 384.57 857.39 399.36 855.91 414.14 857.94 428.92 863.19 443.7 870.9 458.49 879.94 473.27 888.99 488.05 896.72 502.84 902.01 517.62 904.08 532.4 902.63 547.19 897.88 561.97 890.51 576.75 881.61 591.54 872.47 606.32 864.43 621.1 858.66 635.88 856.01 650.67 856.87 665.45 861.1 680.23 868.1 695.02 876.83 709.8 886.03 724.58 894.34 739.37 900.56 754.15 903.77 768.93 903.51 783.72 899.81 798.5 893.22 813.28 884.69 828.07 875.48 842.85 866.93 857.63 852.14 860.01 837.36 863.76 822.57 868.63 807.78 874.28 793 880.33 778.21 886.35 763.42 891.94 748.64 896.7 733.85 900.31 719.06 902.53 704.28 903.19 689.49 902.25 674.7 899.79 659.92 895.96 645.13 891.03 630.35 885.34 615.56 879.28 600.77 873.28 585.99 867.73 571.2 863.03 556.41 859.5 541.63 857.38 526.84 856.81 512.05 857.84 497.27 860.4 482.48 864.31 467.69 869.3 452.91 875.02 438.12 881.08 423.33 887.08 408.55 892.58 393.76 897.22 378.97 900.67 364.19 902.69 349.4 903.16 334.61 902.03 319.83 899.38 305.04 895.4 290.25 890.36 275.47 884.6 260.68 878.53 245.9 872.56 231.11 867.1 216.32 862.52 201.54 859.15 186.75 857.22 171.96 856.85 157.18 858.08 142.39 860.82 127.6 864.87 112.82 869.97 98.03 875.76 83.24 881.84 68.46 887.79 53.67 893.21 38.88 897.71 24.1 901 9.31 902.84 -5.47 903.11 -20.25 901.78 -35.04 898.96 -49.83 894.83 -64.61 889.68 -79.4 883.86 -79.79 868.82 -80.21 853.78 -80.6 838.75 -80.9 823.71 -81.07 808.67 -81.08 793.63 -80.93 778.6 -80.65 763.56 -80.27 748.52 -79.85 733.48 -79.45 718.45 -79.13 703.41 -78.94 688.37 -78.9 673.33 -79.02 658.3 -79.28 643.26 -79.65 628.22 -80.07 613.18 -80.47 598.15 -80.81 583.11 -81.03 568.07 -81.09 553.03 -81 538 -80.76 522.96 -80.41 507.92 -79.99 492.88 -79.58 477.85 -79.23 462.81 -78.99 447.77 -78.9 432.73 -78.96 417.7 -79.18 402.66 -79.52 387.62 -79.93 372.58 -80.34 357.55 -80.71 342.51 -80.97 327.47 -81.09 312.43 -81.05 297.4 -80.85 282.36 -80.53 267.32 -80.13 252.28 -79.71 237.25 -79.34 222.21 -79.05 207.17 -78.91 192.13 -78.92 177.1 -79.09 162.06 -79.4 147.02 -79.79 131.98 -80.21 116.95 -80.6 101.91 -80.9 86.87 -81.07 71.83 -81.08 56.8 -80.94 41.76 -80.65 26.72 -80.27 11.69 -79.85 -3.34 -79.46 -18.38 -79.14 -33.42 -78.94 -48.45 -78.9 -63.49 -79.02 -78.53" fill="url(#uuunion-grad)"></path><path d="M-79.02 -78.53Q-78.9 -63.49 -78.94 -48.45 -79.14 -33.42 -79.46 -18.38 -79.85 -3.34 -80.27 11.69 -80.65 26.72 -80.94 41.76 -81.08 56.8 -81.07 71.83 -80.9 86.87 -80.6 101.91 -80.21 116.95 -79.79 131.98 -79.4 147.02 -79.09 162.06 -78.92 177.1 -78.91 192.13 -79.05 207.17 -79.34 222.21 -79.71 237.25 -80.13 252.28 -80.53 267.32 -80.85 282.36 -81.05 297.4 -81.09 312.43 -80.97 327.47 -80.71 342.51 -80.34 357.55 -79.93 372.58 -79.52 387.62 -79.18 402.66 -69.38 405.37 -59.57 407.92 -49.76 410.22 -39.96 412.21 -30.15 413.83 -20.35 415.02 -1.96 415.93 1.21 415.99 13.6 409.14 26.09 401.58 38.69 393.36 51.41 384.59 64.25 375.39 77.19 365.91 90.22 356.32 103.33 346.75 116.5 337.39 129.69 328.36 142.87 319.8 156.03 311.81 169.12 304.47 182.11 297.82 194.98 291.87 207.69 286.6 220.23 281.95 232.58 277.84 244.71 274.17 256.64 270.79 268.36 267.57 279.87 264.37 291.2 261.04 302.37 257.44 313.4 253.46 324.34 248.98 335.22 243.93 346.09 238.27 357 231.97 367.99 225.04 379.13 217.52 390.44 209.49 401.99 201.04 413.8 192.27 425.91 183.31 438.35 174.29 451.14 165.35 464.27 156.6 477.76 148.18 491.58 140.17 505.71 132.65 520.13 125.68 534.79 119.28 549.63 113.45 564.61 108.16 579.65 103.35 594.68 98.96 609.64 94.88 624.45 91.01 639.05 87.23 653.36 83.43 667.33 79.47 680.9 75.27 694.02 70.73 706.67 65.76 718.82 60.32 730.47 54.38 741.61 47.93 752.28 40.99 762.49 33.59 772.31 25.82 781.78 17.73 790.98 9.43 800 1.01 790.45 -16.5 782.8 -34.03 778.55 -51.56 778.55 -69.08 782.79 -86.61 790.44 -104.14 797.22 -129.42 779.38 -135.37 764.3 -133.87 749.22 -132.79 734.15 -132.2 719.07 -132.13 704 -132.61 688.92 -133.58 673.85 -134.99 658.77 -136.74 643.69 -138.71 628.62 -140.77 613.54 -142.78 598.47 -144.6 583.39 -146.1 568.31 -147.19 553.24 -147.79 538.16 -147.86 523.09 -147.39 508.01 -146.42 492.94 -145.02 477.86 -143.27 462.78 -141.3 447.71 -139.24 432.63 -137.24 417.56 -135.42 402.48 -133.91 387.41 -132.81 372.33 -132.21 357.25 -132.13 342.18 -132.59 327.1 -133.55 312.03 -134.95 296.95 -136.69 281.87 -138.66 266.8 -140.72 251.72 -142.73 236.65 -144.55 221.57 -146.07 206.5 -147.17 191.42 -147.78 176.34 -147.86 161.27 -147.41 146.19 -146.46 131.12 -145.06 116.04 -143.32 100.97 -141.36 85.89 -139.3 70.81 -137.29 55.74 -135.46 40.66 -133.94 25.59 -132.84 10.51 -132.22 -4.56 -132.12 -19.63 -132.57 -34.71 -133.52 -49.78 -134.91 -64.86 -136.64 -79.93 -138.61 -95.01 -140.66 -110.09 -142.68 -125.16 -144.51 -134.4 -132.5 -116.34 -113.86 -106.85 -105.15 -97.47 -96.34 -88.19 -87.45 -79.02 -78.53" fill="url(#uuunion-grad2)" filter="url(#uuunion-blur)"></path><path d="M783.74 401.63Q793.54 398.82 803.35 396.06 813.15 393.41 822.96 390.97 832.77 388.8 842.57 386.98 854.89 392.45 855.91 414.14 857.94 428.92 863.19 443.7 870.9 458.49 879.94 473.27 888.99 488.05 896.72 502.84 902.01 517.62 904.08 532.4 902.63 547.19 897.88 561.97 890.51 576.75 881.61 591.54 872.47 606.32 864.43 621.1 858.66 635.88 856.01 650.67 856.87 665.45 861.1 680.23 868.1 695.02 876.83 709.8 886.03 724.58 894.34 739.37 900.56 754.15 903.77 768.93 903.51 783.72 899.81 798.5 893.22 813.28 884.69 828.07 875.48 842.85 866.93 857.63 853.36 859.76 839.79 863.06 826.22 867.34 812.65 872.36 799.08 877.82 785.51 883.41 771.94 888.8 758.37 893.67 744.8 897.76 731.23 900.81 717.66 902.66 704.09 903.19 690.52 902.37 676.95 900.26 663.38 896.97 649.81 892.69 636.24 887.68 622.67 882.22 609.11 876.63 595.54 871.24 581.97 866.35 568.4 862.26 554.83 859.2 541.26 857.34 527.69 856.8 514.12 857.61 500.55 859.71 486.98 862.99 473.41 867.26 459.84 872.27 446.27 877.72 432.7 883.31 419.13 888.71 405.56 893.6 391.99 897.7 378.42 900.77 364.85 902.64 351.28 903.19 337.71 902.4 324.14 900.3 310.57 897.03 297 892.77 283.43 887.77 269.86 882.31 256.29 876.73 242.72 871.33 229.15 866.43 215.58 862.32 202.01 859.24 188.44 857.36 174.87 856.8 161.3 857.58 147.73 859.66 134.16 862.93 120.59 867.18 107.02 872.18 93.46 877.63 79.89 883.22 66.32 888.62 52.75 893.52 39.18 897.63 25.61 900.73 5.36 897.83 -1.05 882.89 -0.81 872.74 -0.57 862.59 -0.36 852.44 -0.19 842.29 0.19 827.07 0.99 822 13.82 815.13 26.61 807.24 39.33 798.43 51.97 788.82 64.5 778.58 76.91 767.9 89.19 757.01 101.34 746.12 113.36 735.45 125.25 725.22 137.04 715.61 148.73 706.78 160.35 698.84 171.93 691.86 183.5 685.88 195.1 680.86 206.75 676.75 218.51 673.43 230.39 670.75 242.44 668.54 254.67 666.6 267.12 664.73 279.81 662.7 292.73 660.33 305.9 657.43 319.32 653.84 332.96 649.45 346.81 644.17 360.85 637.97 375.03 630.85 389.31 622.86 403.65 614.1 417.99 604.69 432.29 594.78 446.49 584.57 460.52 574.24 474.35 563.98 487.92 553.99 501.18 544.45 514.11 535.5 526.67 527.27 538.85 519.85 550.64 513.28 562.04 507.57 573.07 502.69 583.74 498.55 594.11 495.07 604.21 492.08 614.1 489.44 623.84 486.96 633.51 484.47 643.18 481.79 652.93 478.74 662.83 475.18 672.97 470.99 683.41 466.07 694.22 460.36 705.46 453.86 717.17 446.59 729.41 438.59 742.18 429.96 755.49 420.83 776.55 406.48 783.74 401.63" fill="url(#uuunion-grad3)" filter="url(#uuunion-blur2)"></path></svg>